<?xml version="1.0" standalone="no"?>
<!DOCTYPE svg PUBLIC "-//W3C//DTD SVG 20010904//EN"
 "http://www.w3.org/TR/2001/REC-SVG-20010904/DTD/svg10.dtd">
<svg version="1.0" xmlns="http://www.w3.org/2000/svg"
 width="640.000000pt" height="640.000000pt" viewBox="0 0 640.000000 640.000000"
 preserveAspectRatio="xMidYMid meet">
<metadata>
Created by potrace 1.14, written by Peter Selinger 2001-2017
</metadata>
<g transform="translate(0.000000,640.000000) scale(0.100000,-0.100000)"
fill="#000000" stroke="none">
<path d="M1638 4835 c-863 -860 -1568 -1565 -1568 -1567 0 -2 80 -4 178 -3 97
1 182 -1 188 -3 8 -2 0 -32 -22 -85 -49 -116 -111 -314 -130 -412 -2 -11 -10
-54 -19 -95 -33 -171 -48 -328 -48 -515 0 -124 9 -292 18 -345 2 -14 7 -45 10
-70 4 -40 13 -90 30 -170 56 -274 174 -586 299 -794 20 -32 36 -62 36 -67 0
-5 5 -9 10 -9 6 0 10 -6 10 -13 0 -7 7 -22 15 -32 8 -11 50 -67 92 -125 91
-125 159 -205 270 -317 77 -77 86 -83 125 -84 24 0 973 -1 2110 -1 l2068 0 82
84 c102 103 190 203 202 229 5 10 12 19 16 19 4 0 27 28 51 63 23 34 46 64 49
67 29 24 230 380 230 408 0 6 5 12 10 12 6 0 10 4 10 10 0 5 11 34 25 64 14
30 25 57 25 60 0 2 4 15 9 28 5 13 10 28 11 33 1 6 11 33 22 60 11 28 22 57
24 65 2 8 11 42 20 75 9 33 18 67 19 75 2 8 4 15 5 15 2 0 6 19 15 65 3 19 11
55 16 80 6 25 12 63 15 85 2 22 6 51 9 65 19 95 26 479 12 625 -15 158 -16
167 -47 320 -5 28 -11 59 -13 70 -2 11 -6 27 -9 35 -3 8 -20 67 -39 130 -18
63 -36 122 -40 130 -25 53 -58 144 -55 149 3 4 75 6 160 6 l156 0 0 30 c0 26
-45 74 -357 382 l-358 353 -2 978 c0 537 -2 979 -2 982 -1 4 -1152 5 -1172 1
-3 0 -6 -172 -5 -381 1 -209 -1 -380 -4 -380 -3 0 -246 240 -541 533 -296 292
-563 558 -595 589 l-59 57 -1567 -1564z m2868 -1574 c38 -4 209 -282 274 -446
36 -89 83 -253 94 -325 3 -19 8 -46 11 -59 9 -45 19 -196 19 -281 -1 -90 -12
-269 -19 -279 -2 -4 -6 -25 -9 -47 -9 -59 -14 -83 -20 -92 -3 -5 -8 -23 -11
-41 -27 -153 -162 -437 -284 -596 -68 -89 -202 -235 -216 -235 -3 0 -19 -13
-36 -29 -58 -56 -190 -142 -309 -201 -72 -36 -185 -84 -200 -85 -3 0 -9 -3
-15 -7 -23 -14 -236 -66 -305 -74 -14 -1 -52 -6 -85 -10 -146 -18 -381 -6
-525 26 -25 6 -54 12 -65 15 -136 28 -385 133 -492 206 -23 16 -46 29 -51 29
-6 0 -12 3 -14 8 -1 4 -27 24 -57 45 -88 63 -211 180 -281 266 -19 24 -40 48
-46 55 -21 23 -94 135 -94 145 0 6 -4 11 -10 11 -5 0 -10 5 -10 11 0 6 -8 23
-18 37 -22 32 -116 244 -127 287 -5 17 -9 35 -11 40 -10 35 -37 133 -40 150
-15 67 -34 222 -31 237 3 10 2 20 -1 22 -4 2 -6 55 -6 118 3 161 13 257 41
382 8 37 16 73 17 80 7 36 49 162 57 170 5 6 9 17 9 25 0 42 201 398 231 409
5 2 9 10 9 17 0 8 10 15 23 17 20 3 2577 2 2603 -1z"/>
</g>
</svg>
